<?xml version="1.0" encoding="utf-8"?>
<!-- Generator: Adobe Illustrator 24.3.0, SVG Export Plug-In . SVG Version: 6.00 Build 0)  -->
<svg version="1.1" id="Layer_1" xmlns="http://www.w3.org/2000/svg" xmlns:xlink="http://www.w3.org/1999/xlink" x="0px" y="0px"
	 viewBox="0 0 512 512" style="enable-background:new 0 0 512 512;" xml:space="preserve">
<g>
	<path d="M496.55,231.6L38.44,16.01c-9.45-4.39-20.58-3-28.61,3.61C1.78,26.2-1.69,36.86,0.81,46.94l52.26,209.06L0.81,465.05
		c-2.53,10.08,0.97,20.76,9.03,27.37c4.92,4.03,10.97,6.11,17.11,6.11c3.92,0,7.82-0.84,11.5-2.55l458.11-215.58
		c9.42-4.45,15.45-13.95,15.45-24.4S505.97,236.04,496.55,231.6z M66.86,422.99l22.61-90.47l153.05-76.53L89.47,179.46L66.86,88.99
		l354.9,167L66.86,422.99z"/>
</g>
</svg>
